<svg width="174" height="40" viewBox="0 0 174 40" fill="none" xmlns="http://www.w3.org/2000/svg">
<path d="M33 7C34.807 10.5575 36.6178 15.1639 37.4444 19C38.1643 22.3407 40.2731 24.9333 41 28" stroke="white" stroke-width="3" stroke-linecap="round"/>
<path d="M18.0239 9.01308C18.0239 8.82616 14.9326 10.6978 13.6824 11.0687C12.1756 11.5158 7.41032 13.1323 8.09395 15.2622C8.38082 16.156 11.7898 15.0517 12.5278 14.9744C14.9365 14.7222 17.7534 15.4881 19.5018 16.9889C20.7006 18.0179 22.6548 24.7785 21.3493 22.7447C19.3832 19.6821 4.47519 18.0602 3.0597 21.8402C1.96976 24.7508 0.85178 27.9137 4.49146 28.2949C12.3147 29.1142 20.134 28.9938 28 28.9938" stroke="white" stroke-width="3" stroke-linecap="round"/>
<path d="M35.9943 7C32.8209 9.22381 38.1125 19.285 39.7683 22.3791C42.4032 27.303 48.5665 31.3077 54 33" stroke="white" stroke-width="3" stroke-linecap="round"/>
<path d="M80.6341 19.881C86.2817 19.881 97.4437 21.8663 92.5149 13.8197C90.847 11.0968 82.4527 10.0764 79.7988 11.9676C76.6741 14.1944 77.2927 18.4066 77.2927 21.5647C77.2927 23.0559 76.3893 28.6255 77.7568 29.6886C81.7675 32.8066 90.3401 29.6706 94 27.4577" stroke="white" stroke-width="3" stroke-linecap="round"/>
<path d="M104 32C103.262 25.2444 91.0818 14.8432 100.652 9" stroke="white" stroke-width="3" stroke-linecap="round"/>
<path d="M108.069 30C107.046 27.1168 104.442 21.0474 101.493 19.3535C99.8772 18.425 99.1054 17.1593 101.63 16.5202C102.968 16.1817 109.744 16.0389 110.443 14.8889C111.122 13.771 111.71 13.6062 113 13" stroke="white" stroke-width="3" stroke-linecap="round"/>
<path d="M69.5 6.14332C65.4966 3.98678 62 26.8363 62 29.7519C62 33.6086 74.3575 31.6661 77 30.0844" stroke="white" stroke-width="3" stroke-linecap="round"/>
<path d="M121.331 31C123.672 27.2644 118.614 19.6356 117.866 15.8927C117.563 14.3749 117.8 10.7401 116.681 9.65452C116.012 9.00644 110.329 4.60298 112.486 5.02896C118.982 6.31141 125.459 8.29564 132 9.61209" stroke="white" stroke-width="3" stroke-linecap="round"/>
<path d="M157 32.5103C157.092 33.2775 160.943 35.8359 161.771 36.1601C164.585 37.2614 167.445 38.4691 170.626 37.8153C175.022 36.9114 167.754 25.2328 164.432 24.8713C163.084 24.7245 160.258 22.0552 159.477 20.882C157.627 18.0999 157 16.2386 157 13.0307C157 6.75526 167.637 11.7942 170.213 14.1766" stroke="white" stroke-width="3" stroke-linecap="round"/>
<path d="M112 7C107.892 3.87035 102.641 2 97 2" stroke="white" stroke-width="3" stroke-linecap="round"/>
<path d="M128.494 18.9517C131.144 20.6268 131.246 24.7609 130.341 27.2106C128.745 31.536 145.073 30.991 146.414 30.9646C149.705 30.9 153.578 28.1452 154.728 25.4587C156.162 22.1063 151.54 20.3899 149.924 18.2009C147.644 15.1123 140.042 14.4114 136.623 13.5292C131.15 12.117 126 13.4023 126 18.9517" stroke="white" stroke-width="3" stroke-linecap="round"/>
<path d="M41.0544 22C38.0229 21.2146 30.8033 8 35.6031 8C41.5457 8 47.3799 8.59276 53 10.2105" stroke="white" stroke-width="3" stroke-linecap="round"/>
</svg>
